HIERARCHY
ROOT root
{
	OFFSET 0.000000 0.000642 0.045086
	CHANNELS 6 Xposition Yposition Zposition Xrotation Yrotation Zrotation
	JOINT pelvis
	{
		OFFSET -0.002936 0.026773 0.927670
		CHANNELS 6 Xposition Yposition Zposition Xrotation Yrotation Zrotation
		JOINT thigh_R
		{
			OFFSET -0.109487 -0.026910 -0.119863
			CHANNELS 6 Xposition Yposition Zposition Xrotation Yrotation Zrotation
			JOINT calf_R
			{
				OFFSET -0.031978 -0.023263 -0.393771
				CHANNELS 3 Xrotation Yrotation Zrotation
				JOINT foot_R
				{
					OFFSET -0.052496 0.000902 -0.370102
					CHANNELS 3 Xrotation Yrotation Zrotation
					JOINT toes_R
					{
						OFFSET -0.009320 -0.126011 -0.069821
						CHANNELS 6 Xposition Yposition Zposition Xrotation Yrotation Zrotation
						End Site
						{
							OFFSET -0.004473 -0.046724 -0.003049
						}
					}
				}
				JOINT calf_twist_R
				{
					OFFSET 0.000000 0.000000 0.000000
					CHANNELS 6 Xposition Yposition Zposition Xrotation Yrotation Zrotation
					End Site
					{
						OFFSET -0.038816 0.005263 -0.254563
					}
				}
			}
			JOINT thigh_twist_R
			{
				OFFSET 0.000000 -0.000000 0.000000
				CHANNELS 6 Xposition Yposition Zposition Xrotation Yrotation Zrotation
				End Site
				{
					OFFSET -0.013447 -0.026672 -0.173442
				}
			}
		}
		JOINT thigh_L
		{
			OFFSET 0.115359 -0.026910 -0.119863
			CHANNELS 6 Xposition Yposition Zposition Xrotation Yrotation Zrotation
			JOINT calf_L
			{
				OFFSET 0.031978 -0.023263 -0.393771
				CHANNELS 3 Xrotation Yrotation Zrotation
				JOINT foot_L
				{
					OFFSET 0.052496 0.000902 -0.370102
					CHANNELS 3 Xrotation Yrotation Zrotation
					JOINT toes_L
					{
						OFFSET 0.009320 -0.126011 -0.069821
						CHANNELS 3 Xrotation Yrotation Zrotation
						End Site
						{
							OFFSET 0.004473 -0.046724 -0.003049
						}
					}
				}
				JOINT calf_twist_L
				{
					OFFSET 0.000000 0.000000 0.000000
					CHANNELS 6 Xposition Yposition Zposition Xrotation Yrotation Zrotation
					End Site
					{
						OFFSET 0.038816 0.005263 -0.254563
					}
				}
			}
			JOINT thigh_twist_L
			{
				OFFSET 0.000000 0.000000 0.000000
				CHANNELS 6 Xposition Yposition Zposition Xrotation Yrotation Zrotation
				End Site
				{
					OFFSET 0.013447 -0.026672 -0.173442
				}
			}
		}
		JOINT spine01
		{
			OFFSET -0.000052 -0.001333 0.006057
			CHANNELS 3 Xrotation Yrotation Zrotation
			JOINT spine02
			{
				OFFSET 0.002988 -0.035069 0.061561
				CHANNELS 3 Xrotation Yrotation Zrotation
				JOINT spine03
				{
					OFFSET 0.000000 0.008649 0.117635
					CHANNELS 3 Xrotation Yrotation Zrotation
					JOINT clavicle_L
					{
						OFFSET 0.031960 -0.002455 0.159580
						CHANNELS 6 Xposition Yposition Zposition Xrotation Yrotation Zrotation
						JOINT upperarm_L
						{
							OFFSET 0.106613 -0.013377 -0.022582
							CHANNELS 6 Xposition Yposition Zposition Xrotation Yrotation Zrotation
							JOINT lowerarm_L
							{
								OFFSET 0.233664 0.021966 -0.134813
								CHANNELS 3 Xrotation Yrotation Zrotation
								JOINT hand_L
								{
									OFFSET 0.202817 -0.038212 -0.103702
									CHANNELS 3 Xrotation Yrotation Zrotation
									JOINT thumb01_L
									{
										OFFSET 0.008269 -0.017364 -0.009129
										CHANNELS 6 Xposition Yposition Zposition Xrotation Yrotation Zrotation
										JOINT thumb02_L
										{
											OFFSET 0.007103 -0.025549 -0.027526
											CHANNELS 3 Xrotation Yrotation Zrotation
											JOINT thumb03_L
											{
												OFFSET 0.011035 -0.026258 -0.014218
												CHANNELS 3 Xrotation Yrotation Zrotation
												End Site
												{
													OFFSET 0.008927 -0.014147 -0.017737
												}
											}
										}
									}
									JOINT index00_L
									{
										OFFSET 0.015790 -0.019369 -0.010869
										CHANNELS 6 Xposition Yposition Zposition Xrotation Yrotation Zrotation
										JOINT index01_L
										{
											OFFSET 0.047864 -0.007217 -0.023292
											CHANNELS 3 Xrotation Yrotation Zrotation
											JOINT index02_L
											{
												OFFSET 0.026189 -0.000355 -0.020650
												CHANNELS 3 Xrotation Yrotation Zrotation
												JOINT index03_L
												{
													OFFSET 0.017813 0.001193 -0.013583
													CHANNELS 3 Xrotation Yrotation Zrotation
													End Site
													{
														OFFSET 0.013377 0.001373 -0.016250
													}
												}
											}
										}
									}
									JOINT middle00_L
									{
										OFFSET 0.016276 -0.006169 -0.012863
										CHANNELS 6 Xposition Yposition Zposition Xrotation Yrotation Zrotation
										JOINT middle01_L
										{
											OFFSET 0.049067 -0.003947 -0.017410
											CHANNELS 3 Xrotation Yrotation Zrotation
											JOINT middle02_L
											{
												OFFSET 0.029087 0.000312 -0.026941
												CHANNELS 3 Xrotation Yrotation Zrotation
												JOINT middle03_L
												{
													OFFSET 0.019190 0.000267 -0.015543
													CHANNELS 3 Xrotation Yrotation Zrotation
													End Site
													{
														OFFSET 0.014683 0.000017 -0.017510
													}
												}
											}
										}
									}
									JOINT ring00_L
									{
										OFFSET 0.017106 0.003470 -0.011997
										CHANNELS 6 Xposition Yposition Zposition Xrotation Yrotation Zrotation
										JOINT ring01_L
										{
											OFFSET 0.044984 0.002116 -0.016733
											CHANNELS 3 Xrotation Yrotation Zrotation
											JOINT ring02_L
											{
												OFFSET 0.028856 0.000400 -0.026983
												CHANNELS 3 Xrotation Yrotation Zrotation
												JOINT ring03_L
												{
													OFFSET 0.017620 0.000363 -0.013833
													CHANNELS 3 Xrotation Yrotation Zrotation
													End Site
													{
														OFFSET 0.015507 -0.000807 -0.015547
													}
												}
											}
										}
									}
									JOINT pinky00_L
									{
										OFFSET 0.014366 0.020048 -0.015014
										CHANNELS 6 Xposition Yposition Zposition Xrotation Yrotation Zrotation
										JOINT pinky01_L
										{
											OFFSET 0.041296 0.001442 -0.016227
											CHANNELS 3 Xrotation Yrotation Zrotation
											JOINT pinky02_L
											{
												OFFSET 0.024951 -0.000301 -0.020450
												CHANNELS 3 Xrotation Yrotation Zrotation
												JOINT pinky03_L
												{
													OFFSET 0.013007 -0.001157 -0.010280
													CHANNELS 3 Xrotation Yrotation Zrotation
													End Site
													{
														OFFSET 0.009963 -0.001160 -0.011403
													}
												}
											}
										}
									}
								}
								JOINT lowerarm_twist_L
								{
									OFFSET 0.000000 -0.000000 0.000000
									CHANNELS 6 Xposition Yposition Zposition Xrotation Yrotation Zrotation
									End Site
									{
										OFFSET 0.113147 -0.023106 -0.058600
									}
								}
							}
							JOINT upperarm_twist_L
							{
								OFFSET 0.000000 0.000000 0.000000
								CHANNELS 6 Xposition Yposition Zposition Xrotation Yrotation Zrotation
								End Site
								{
									OFFSET 0.131225 0.003005 -0.082365
								}
							}
						}
					}
					JOINT clavicle_R
					{
						OFFSET -0.031960 -0.002455 0.159580
						CHANNELS 6 Xposition Yposition Zposition Xrotation Yrotation Zrotation
						JOINT upperarm_R
						{
							OFFSET -0.106613 -0.013377 -0.022582
							CHANNELS 6 Xposition Yposition Zposition Xrotation Yrotation Zrotation
							JOINT lowerarm_R
							{
								OFFSET -0.233664 0.021966 -0.134813
								CHANNELS 3 Xrotation Yrotation Zrotation
								JOINT hand_R
								{
									OFFSET -0.202817 -0.038212 -0.103702
									CHANNELS 3 Xrotation Yrotation Zrotation
									JOINT thumb01_R
									{
										OFFSET -0.008269 -0.017364 -0.009129
										CHANNELS 6 Xposition Yposition Zposition Xrotation Yrotation Zrotation
										JOINT thumb02_R
										{
											OFFSET -0.007103 -0.025549 -0.027526
											CHANNELS 3 Xrotation Yrotation Zrotation
											JOINT thumb03_R
											{
												OFFSET -0.011035 -0.026258 -0.014218
												CHANNELS 3 Xrotation Yrotation Zrotation
												End Site
												{
													OFFSET -0.008927 -0.014147 -0.017737
												}
											}
										}
									}
									JOINT index00_R
									{
										OFFSET -0.015790 -0.019369 -0.010869
										CHANNELS 6 Xposition Yposition Zposition Xrotation Yrotation Zrotation
										JOINT index01_R
										{
											OFFSET -0.047864 -0.007217 -0.023292
											CHANNELS 3 Xrotation Yrotation Zrotation
											JOINT index02_R
											{
												OFFSET -0.026189 -0.000355 -0.020650
												CHANNELS 3 Xrotation Yrotation Zrotation
												JOINT index03_R
												{
													OFFSET -0.017813 0.001193 -0.013583
													CHANNELS 3 Xrotation Yrotation Zrotation
													End Site
													{
														OFFSET -0.013377 0.001373 -0.016250
													}
												}
											}
										}
									}
									JOINT middle00_R
									{
										OFFSET -0.016276 -0.006169 -0.012863
										CHANNELS 6 Xposition Yposition Zposition Xrotation Yrotation Zrotation
										JOINT middle01_R
										{
											OFFSET -0.049067 -0.003947 -0.017410
											CHANNELS 3 Xrotation Yrotation Zrotation
											JOINT middle02_R
											{
												OFFSET -0.029087 0.000312 -0.026941
												CHANNELS 3 Xrotation Yrotation Zrotation
												JOINT middle03_R
												{
													OFFSET -0.019190 0.000267 -0.015543
													CHANNELS 3 Xrotation Yrotation Zrotation
													End Site
													{
														OFFSET -0.014683 0.000017 -0.017510
													}
												}
											}
										}
									}
									JOINT ring00_R
									{
										OFFSET -0.017106 0.003470 -0.011997
										CHANNELS 6 Xposition Yposition Zposition Xrotation Yrotation Zrotation
										JOINT ring01_R
										{
											OFFSET -0.044984 0.002116 -0.016733
											CHANNELS 3 Xrotation Yrotation Zrotation
											JOINT ring02_R
											{
												OFFSET -0.028856 0.000400 -0.026983
												CHANNELS 3 Xrotation Yrotation Zrotation
												JOINT ring03_R
												{
													OFFSET -0.017620 0.000363 -0.013833
													CHANNELS 3 Xrotation Yrotation Zrotation
													End Site
													{
														OFFSET -0.015507 -0.000807 -0.015547
													}
												}
											}
										}
									}
									JOINT pinky00_R
									{
										OFFSET -0.014366 0.020048 -0.015014
										CHANNELS 6 Xposition Yposition Zposition Xrotation Yrotation Zrotation
										JOINT pinky01_R
										{
											OFFSET -0.041296 0.001442 -0.016227
											CHANNELS 3 Xrotation Yrotation Zrotation
											JOINT pinky02_R
											{
												OFFSET -0.024951 -0.000301 -0.020450
												CHANNELS 3 Xrotation Yrotation Zrotation
												JOINT pinky03_R
												{
													OFFSET -0.013007 -0.001157 -0.010280
													CHANNELS 3 Xrotation Yrotation Zrotation
													End Site
													{
														OFFSET -0.009963 -0.001160 -0.011403
													}
												}
											}
										}
									}
								}
								JOINT lowerarm_twist_R
								{
									OFFSET 0.000000 0.000000 0.000000
									CHANNELS 6 Xposition Yposition Zposition Xrotation Yrotation Zrotation
									End Site
									{
										OFFSET -0.113147 -0.023106 -0.058600
									}
								}
							}
							JOINT upperarm_twist_R
							{
								OFFSET 0.000000 0.000000 0.000000
								CHANNELS 6 Xposition Yposition Zposition Xrotation Yrotation Zrotation
								End Site
								{
									OFFSET -0.131225 0.003005 -0.082365
								}
							}
						}
					}
					JOINT neck
					{
						OFFSET -0.000000 -0.002726 0.194733
						CHANNELS 6 Xposition Yposition Zposition Xrotation Yrotation Zrotation
						JOINT head
						{
							OFFSET 0.000000 -0.047407 0.104388
							CHANNELS 3 Xrotation Yrotation Zrotation
							End Site
							{
								OFFSET -0.000000 -0.000839 0.155358
							}
						}
					}
					JOINT breast_L
					{
						OFFSET 0.075423 -0.033073 0.045626
						CHANNELS 6 Xposition Yposition Zposition Xrotation Yrotation Zrotation
						End Site
						{
							OFFSET 0.027052 -0.131754 -0.030994
						}
					}
					JOINT breast_R
					{
						OFFSET -0.075423 -0.033073 0.045626
						CHANNELS 6 Xposition Yposition Zposition Xrotation Yrotation Zrotation
						End Site
						{
							OFFSET -0.027052 -0.131754 -0.030994
						}
					}
				}
			}
		}
	}
}
MOTION
Frames: 4
Frame Time: 0.041667
0.000000 0.000642 0.045086 0.000000 0.000000 0.000000 -0.636788 0.168532 1.678778 -155.004327 -77.294730 -439.005437 -0.109487 -0.026910 -0.119863 6.201336 -4.270399 1.816761 23.134742 -3.213433 -2.713127 -11.553929 -9.079096 -10.764703 -0.009320 -0.126011 -0.069821 22.667386 -1.563938 2.517339 0.000000 0.000000 -0.000000 0.000002 -0.000001 0.000000 0.000000 -0.000000 0.000000 -0.000000 0.000003 -0.000000 0.115359 -0.026911 -0.119864 -6.791157 -7.114526 -0.333503 23.241913 3.445394 2.679687 -20.139974 12.066710 1.740596 13.177300 1.729691 -6.036653 0.000000 -0.000000 -0.000000 -0.000001 -0.000003 0.000002 -0.000000 -0.000000 -0.000000 0.000001 -0.000002 -0.000002 5.632292 -3.165987 0.391930 13.808976 1.660426 2.114897 -0.020957 2.304180 1.583024 0.031960 -0.002455 0.159581 -0.000005 -0.000006 -0.000002 0.106614 -0.013377 -0.022582 1.834739 36.372895 -62.088503 -2.308847 -2.907962 -2.216783 16.553397 -10.794985 -14.472409 0.008269 -0.017364 -0.009130 0.000927 -0.000068 -0.000379 -0.000298 -0.000114 0.000231 7.259231 21.286944 21.578511 0.015791 -0.019369 -0.010870 -0.000005 -0.000021 0.000001 -0.000185 0.014391 -0.000342 -5.044809 7.786720 -10.482469 1.371944 -6.040489 -0.749975 0.016275 -0.006169 -0.012863 0.000003 0.000014 -0.000001 -0.000648 0.015499 -0.000432 -0.000114 0.033342 0.000381 0.000282 0.071432 0.000418 0.017107 0.003471 -0.011997 -0.000004 -0.000018 -0.000001 -0.000004 0.017523 0.000235 -0.000664 0.031909 0.000153 0.000756 0.091893 -0.004035 0.014367 0.020048 -0.015015 -0.000003 0.000003 0.000002 0.000249 0.017953 -0.000006 0.001924 0.039138 -0.002046 0.005971 0.104258 -0.005370 -0.000000 -0.000000 -0.000000 -0.000015 0.000676 0.000308 0.000001 0.000000 0.000000 -0.000007 0.001366 -0.000063 -0.031959 -0.002455 0.159580 0.000000 0.000013 -0.000005 -0.106613 -0.013378 -0.022581 12.887208 -32.830670 54.934149 -30.644344 7.014108 47.600442 5.190080 7.345048 8.688889 -0.008269 -0.017364 -0.009130 0.001369 -0.000758 0.000195 -0.000073 -0.000412 0.000100 17.442760 -28.120833 -78.477965 -0.015791 -0.019369 -0.010870 -0.000008 0.000012 0.000002 -0.000144 -0.013007 0.000296 20.250908 -9.815060 -45.289133 1.359223 6.082381 0.666008 -0.016275 -0.006169 -0.012862 -0.000001 0.000002 -0.000001 -0.000565 -0.013615 0.000377 -0.001185 -0.011794 0.000790 0.000542 -0.020172 -0.000669 -0.017107 0.003471 -0.011997 0.000001 0.000004 0.000002 -0.000715 -0.016761 0.000436 -0.000647 -0.015893 0.000169 -0.000125 -0.042079 0.002320 -0.014367 0.020048 -0.015014 -0.000001 -0.000001 0.000001 -0.000988 -0.017899 0.001031 0.000523 -0.022082 0.001601 0.000327 -0.056876 0.006360 -0.000001 -0.000000 -0.000000 0.000001 -0.000004 0.000006 0.000001 -0.000000 0.000000 -0.000002 -0.000082 -0.000004 0.000000 -0.002727 0.194733 34.839658 7.874732 -16.711610 4.776643 -1.145161 -5.369064 0.075423 -0.033073 0.045625 0.000424 0.000107 -0.000165 -0.075423 -0.033073 0.045626 0.000446 -0.000112 0.000181 
0.000000 0.000642 0.045086 0.000000 0.000000 0.000000 -0.637861 0.169458 1.681864 -154.851727 -77.458710 -439.018141 -0.109487 -0.026910 -0.119863 5.139342 -4.126633 0.957566 21.062661 -3.193896 -2.535695 -14.190041 -9.135562 -9.180037 -0.009320 -0.126011 -0.069821 18.989094 -1.506063 3.805770 -0.000000 0.000000 -0.000000 0.000001 -0.000000 0.000000 0.000000 0.000000 0.000000 0.000002 0.000004 -0.000001 0.115359 -0.026910 -0.119864 -10.715117 -6.744093 0.791328 22.288085 3.426967 2.601981 -22.779897 11.664548 2.910101 7.131278 2.062506 -8.238102 0.000000 -0.000000 -0.000000 -0.000000 -0.000003 0.000002 -0.000000 -0.000000 -0.000000 -0.000001 -0.000003 0.000001 5.641887 -3.864578 0.348430 13.474351 2.340098 2.104716 -0.336083 3.494738 1.579049 0.031960 -0.002455 0.159581 -0.000006 -0.000007 -0.000001 0.106614 -0.013377 -0.022581 5.327000 30.173187 -65.222644 -3.478110 -3.588196 -4.214369 12.291191 -9.360667 -12.364898 0.008269 -0.017364 -0.009130 0.000922 -0.000073 -0.000378 -0.000302 -0.000113 0.000230 7.273996 20.579930 23.587273 0.015791 -0.019369 -0.010870 -0.000003 -0.000024 0.000001 -0.000178 0.014389 -0.000341 -4.422082 6.650393 -9.039462 1.371940 -6.040490 -0.749976 0.016275 -0.006169 -0.012863 0.000006 0.000011 0.000000 -0.000645 0.015501 -0.000431 -0.000114 0.033340 0.000382 0.000284 0.071434 0.000418 0.017107 0.003471 -0.011997 -0.000003 -0.000020 -0.000000 -0.000003 0.017523 0.000235 -0.000669 0.031909 0.000152 0.000758 0.091894 -0.004035 0.014367 0.020048 -0.015015 -0.000001 -0.000002 0.000001 0.000248 0.017957 -0.000006 0.001923 0.039135 -0.002049 0.005970 0.104264 -0.005365 -0.000000 -0.000000 -0.000000 -0.000019 0.000677 0.000308 0.000000 0.000000 0.000000 -0.000002 0.001359 -0.000069 -0.031960 -0.002455 0.159580 -0.000001 0.000014 -0.000007 -0.106614 -0.013378 -0.022582 14.112552 -34.400132 55.462420 -30.826877 6.966919 47.891347 6.200328 7.602221 9.222561 -0.008269 -0.017364 -0.009130 0.001369 -0.000759 0.000191 -0.000079 -0.000413 0.000095 16.780252 -28.866316 -75.135646 -0.015791 -0.019370 -0.010870 -0.000007 0.000013 -0.000000 -0.000148 -0.013003 0.000294 18.306997 -10.346142 -42.808409 1.359229 6.082384 0.666005 -0.016274 -0.006169 -0.012862 0.000001 0.000002 -0.000002 -0.000567 -0.013610 0.000379 -0.001184 -0.011792 0.000789 0.000544 -0.020171 -0.000669 -0.017107 0.003471 -0.011996 -0.000000 0.000002 -0.000000 -0.000718 -0.016763 0.000437 -0.000643 -0.015896 0.000171 -0.000125 -0.042077 0.002319 -0.014367 0.020048 -0.015014 0.000001 0.000004 -0.000000 -0.000988 -0.017897 0.001032 0.000530 -0.022087 0.001598 0.000327 -0.056879 0.006361 -0.000001 -0.000000 -0.000000 0.000003 -0.000003 0.000004 0.000001 -0.000000 0.000000 -0.000002 -0.000080 -0.000003 0.000000 -0.002727 0.194732 33.665514 7.417578 -17.405229 3.772392 0.385471 -5.951748 0.075423 -0.033073 0.045626 0.000424 0.000107 -0.000167 -0.075423 -0.033073 0.045626 0.000448 -0.000112 0.000181 
0.000000 0.000642 0.045086 0.000000 0.000000 0.000000 -0.640937 0.168148 1.681338 -155.039598 -77.534655 -439.093273 -0.109487 -0.026910 -0.119863 4.338832 -4.156001 0.150590 19.642099 -3.185122 -2.413442 -16.015506 -8.932218 -9.320483 -0.009320 -0.126011 -0.069821 18.994061 -1.506156 3.803954 0.000000 -0.000000 -0.000000 0.000003 -0.000001 0.000000 0.000000 -0.000000 0.000000 0.000003 0.000003 0.000002 0.115359 -0.026910 -0.119864 -14.226533 -5.982506 0.112889 21.139628 3.406686 2.508022 -25.073044 10.962156 4.475172 7.760341 2.019214 -8.010349 0.000000 -0.000000 -0.000000 -0.000001 -0.000003 -0.000001 -0.000000 -0.000000 -0.000000 0.000001 -0.000002 -0.000000 5.881463 -3.832300 0.435780 13.246526 2.334049 2.183121 -0.697395 3.481229 1.608035 0.031960 -0.002455 0.159581 -0.000008 -0.000008 -0.000003 0.106614 -0.013377 -0.022582 3.555283 35.801509 -62.899021 -2.619216 -3.093992 -2.749769 17.250066 -11.045114 -14.808849 0.008269 -0.017364 -0.009129 0.000924 -0.000068 -0.000380 -0.000300 -0.000113 0.000230 6.689040 19.823808 23.515744 0.015791 -0.019369 -0.010870 -0.000005 -0.000026 0.000001 -0.000180 0.014387 -0.000343 -4.864468 5.847759 -9.610976 1.371938 -6.040488 -0.749974 0.016275 -0.006169 -0.012862 0.000004 0.000011 -0.000001 -0.000650 0.015501 -0.000432 -0.000113 0.033340 0.000382 0.000280 0.071439 0.000418 0.017107 0.003471 -0.011996 -0.000005 -0.000019 -0.000001 -0.000004 0.017525 0.000235 -0.000666 0.031909 0.000154 0.000755 0.091898 -0.004035 0.014367 0.020048 -0.015015 -0.000001 -0.000000 0.000001 0.000252 0.017959 -0.000006 0.001923 0.039140 -0.002046 0.005973 0.104265 -0.005368 0.000000 -0.000000 -0.000001 -0.000016 0.000677 0.000310 0.000000 0.000000 0.000000 -0.000004 0.001373 -0.000062 -0.031959 -0.002455 0.159580 -0.000000 0.000014 -0.000008 -0.106613 -0.013377 -0.022582 14.078687 -33.555138 54.832854 -31.085803 6.898240 48.304662 6.313102 7.631537 9.281923 -0.008269 -0.017364 -0.009130 0.001367 -0.000755 0.000193 -0.000081 -0.000412 0.000099 18.626366 -26.352352 -80.304453 -0.015791 -0.019370 -0.010870 -0.000004 0.000014 0.000000 -0.000140 -0.013007 0.000294 22.395996 -8.348815 -46.033344 1.359222 6.082378 0.666009 -0.016274 -0.006169 -0.012862 0.000001 0.000007 -0.000003 -0.000565 -0.013610 0.000379 -0.001184 -0.011791 0.000790 0.000543 -0.020174 -0.000667 -0.017107 0.003471 -0.011997 -0.000003 0.000004 -0.000001 -0.000720 -0.016763 0.000436 -0.000647 -0.015895 0.000168 -0.000128 -0.042075 0.002321 -0.014367 0.020048 -0.015014 0.000002 0.000005 -0.000000 -0.000993 -0.017894 0.001033 0.000526 -0.022085 0.001601 0.000329 -0.056880 0.006360 -0.000001 -0.000000 -0.000000 0.000000 -0.000003 0.000006 0.000001 -0.000000 0.000000 0.000001 -0.000078 0.000002 0.000000 -0.002727 0.194732 34.525329 6.707590 -17.422590 4.511784 -0.728610 -5.857103 0.075423 -0.033073 0.045626 0.000424 0.000107 -0.000167 -0.075423 -0.033073 0.045626 0.000447 -0.000111 0.000179 
0.000000 0.000642 0.045086 0.000000 0.000000 0.000000 -0.644479 0.168267 1.681725 -154.917720 -77.692842 -439.137396 -0.109487 -0.026910 -0.119863 4.081097 -4.200348 0.732029 18.814267 -3.182010 -2.342072 -16.551538 -8.642435 -10.217891 -0.009320 -0.126011 -0.069821 21.842011 -1.543736 2.806036 0.000000 0.000000 0.000000 0.000002 -0.000001 -0.000002 0.000000 0.000000 0.000001 0.000002 0.000003 -0.000000 0.115359 -0.026910 -0.119864 -17.152868 -5.154225 -1.873309 19.716227 3.384551 2.390907 -25.846018 11.310422 3.686019 16.741424 1.643454 -4.728458 0.000000 -0.000000 -0.000000 -0.000001 -0.000003 0.000000 -0.000000 0.000000 -0.000000 0.000005 -0.000002 -0.000001 5.681102 -3.328625 0.585422 13.394736 1.816143 2.344947 -0.482023 2.579509 1.672963 0.031960 -0.002455 0.159581 -0.000008 -0.000008 -0.000002 0.106614 -0.013377 -0.022582 1.832716 37.854039 -61.566792 -2.426319 -2.978871 -2.418953 18.704613 -11.581220 -15.503476 0.008269 -0.017364 -0.009129 0.000927 -0.000073 -0.000379 -0.000301 -0.000114 0.000229 6.497646 20.582773 20.926801 0.015791 -0.019369 -0.010870 -0.000005 -0.000026 0.000001 -0.000177 0.014384 -0.000342 -5.794488 7.145733 -11.603545 1.371943 -6.040479 -0.749974 0.016275 -0.006169 -0.012862 0.000001 0.000011 -0.000001 -0.000647 0.015501 -0.000432 -0.000114 0.033347 0.000383 0.000282 0.071442 0.000420 0.017107 0.003471 -0.011996 -0.000006 -0.000019 -0.000001 -0.000004 0.017525 0.000235 -0.000666 0.031913 0.000154 0.000756 0.091898 -0.004035 0.014367 0.020048 -0.015015 -0.000004 -0.000004 0.000000 0.000249 0.017955 -0.000006 0.001922 0.039143 -0.002047 0.005972 0.104264 -0.005366 -0.000000 0.000000 -0.000000 -0.000024 0.000672 0.000309 0.000000 0.000000 0.000000 -0.000008 0.001373 -0.000066 -0.031959 -0.002455 0.159580 -0.000001 0.000015 -0.000008 -0.106614 -0.013377 -0.022582 14.652557 -33.290680 55.293025 -31.255403 6.852030 48.573700 8.470104 8.215639 10.409067 -0.008269 -0.017364 -0.009130 0.001367 -0.000756 0.000199 -0.000077 -0.000412 0.000096 17.056495 -27.063267 -70.938522 -0.015791 -0.019370 -0.010870 -0.000002 0.000013 -0.000000 -0.000145 -0.013005 0.000297 17.557795 -8.611455 -38.294074 1.359222 6.082381 0.666010 -0.016275 -0.006169 -0.012862 -0.000001 0.000007 -0.000002 -0.000563 -0.013612 0.000377 -0.001185 -0.011794 0.000788 0.000539 -0.020176 -0.000670 -0.017108 0.003471 -0.011996 0.000001 0.000002 0.000001 -0.000716 -0.016760 0.000436 -0.000646 -0.015896 0.000170 -0.000125 -0.042077 0.002320 -0.014367 0.020048 -0.015014 0.000001 0.000006 -0.000002 -0.000987 -0.017899 0.001031 0.000529 -0.022085 0.001597 0.000327 -0.056880 0.006361 -0.000000 -0.000000 -0.000000 -0.000003 -0.000001 0.000006 0.000000 -0.000000 0.000000 -0.000003 -0.000082 -0.000006 0.000000 -0.002727 0.194732 33.224072 8.524883 -19.935193 4.358025 -2.298635 -6.503991 0.075423 -0.033073 0.045626 0.000424 0.000107 -0.000167 -0.075423 -0.033073 0.045626 0.000451 -0.000112 0.000181 
